<svg version="1.0" xmlns="http://www.w3.org/2000/svg"
 width="623.000000pt" height="295.000000pt" viewBox="0 0 623.000000 295.000000"
 preserveAspectRatio="xMidYMid meet">

<g transform="translate(0.000000,295.000000) scale(0.100000,-0.100000)"
fill="#000000" stroke="none">
<path d="M3088 2942 c-13 -2 -18 -13 -18 -37 0 -24 5 -35 18 -37 36 -8 52 3
52 37 0 34 -16 45 -52 37z"/>
<path d="M0 2905 c0 -19 5 -35 10 -35 6 0 10 16 10 35 0 19 -4 35 -10 35 -5 0
-10 -16 -10 -35z"/>
<path d="M6190 2905 c0 -28 4 -35 20 -35 16 0 20 7 20 35 0 28 -4 35 -20 35
-16 0 -20 -7 -20 -35z"/>
<path d="M788 2893 c420 -2 1104 -2 1520 0 416 1 73 2 -763 2 -836 0 -1177 -1
-757 -2z"/>
<path d="M3908 2893 c420 -2 1104 -2 1520 0 416 1 73 2 -763 2 -836 0 -1177
-1 -757 -2z"/>
<path d="M6215 2195 c0 -369 1 -518 2 -332 2 186 2 488 0 670 -1 183 -2 31 -2
-338z"/>
<path d="M5484 2726 c-18 -14 -19 -29 -19 -316 0 -287 1 -302 19 -316 11 -8
23 -14 28 -14 4 0 8 149 8 330 0 182 -4 330 -8 330 -5 0 -17 -6 -28 -14z"/>
<path d="M5390 2680 c-12 -8 -16 -49 -18 -247 -3 -242 2 -293 33 -293 13 0 15
35 15 275 0 151 -3 275 -7 275 -5 0 -15 -5 -23 -10z"/>
<path d="M1309 2648 c-101 -53 -157 -154 -146 -264 24 -231 310 -326 470 -155
46 49 77 123 77 181 0 56 -31 132 -73 177 -90 98 -212 121 -328 61z m229 -24
c65 -32 108 -83 128 -151 30 -103 -19 -219 -115 -270 -25 -13 -48 -20 -52 -16
-4 5 -9 34 -11 66 -4 49 -2 57 13 57 10 0 31 11 47 25 37 31 49 84 28 125 -8
16 -12 38 -10 47 7 31 -9 45 -40 33 -35 -13 -147 -13 -182 0 -32 12 -37 9 -40
-28 -1 -15 -7 -40 -13 -56 -6 -16 -9 -44 -5 -62 7 -38 54 -84 85 -84 21 0 22
-1 13 -24 -8 -21 -58 -21 -74 0 -8 8 -21 19 -31 25 -16 8 -15 4 4 -26 12 -19
33 -37 47 -41 46 -11 50 -13 50 -33 0 -32 -18 -34 -66 -6 -166 97 -156 332 18
419 35 18 68 26 103 26 35 0 68 -8 103 -26z"/>
<path d="M5311 2636 c-8 -9 -11 -79 -9 -232 3 -199 5 -219 21 -222 16 -3 17
13 17 232 0 130 -4 236 -9 236 -5 0 -14 -6 -20 -14z"/>
<path d="M5251 2606 c-17 -20 -11 -388 7 -394 9 -3 12 42 12 202 0 113 -2 206
-4 206 -2 0 -9 -6 -15 -14z"/>
<path d="M5502 2045 c-16 -34 -16 -34 17 -33 30 1 30 1 15 30 -8 15 -16 28
-18 28 -1 0 -8 -11 -14 -25z"/>
<path d="M962 1920 c0 -19 2 -27 5 -17 2 9 2 25 0 35 -3 9 -5 1 -5 -18z"/>
<path d="M1162 1925 c0 -16 2 -22 5 -12 2 9 2 23 0 30 -3 6 -5 -1 -5 -18z"/>
<path d="M1352 1920 c0 -19 2 -27 5 -17 2 9 2 25 0 35 -3 9 -5 1 -5 -18z"/>
<path d="M1552 1925 c0 -16 2 -22 5 -12 2 9 2 23 0 30 -3 6 -5 -1 -5 -18z"/>
<path d="M1621 1918 c2 -32 2 -32 6 -5 3 20 9 27 21 25 9 -2 16 -12 15 -22 -1
-11 2 -15 8 -9 16 16 -2 43 -27 43 -21 0 -24 -4 -23 -32z"/>
<path d="M1920 1920 c0 -16 2 -30 4 -30 2 0 6 14 8 30 3 17 1 30 -4 30 -4 0
-8 -13 -8 -30z"/>
<path d="M1971 1927 c0 -16 3 -26 8 -23 5 4 12 0 14 -6 3 -7 6 -3 6 10 1 13
-3 21 -8 17 -5 -3 -12 3 -14 12 -3 11 -5 7 -6 -10z"/>
<path d="M1522 1920 c0 -14 2 -19 5 -12 2 6 2 18 0 25 -3 6 -5 1 -5 -13z"/>
<path d="M1021 1914 c0 -11 3 -14 6 -6 3 7 2 16 -1 19 -3 4 -6 -2 -5 -13z"/>
<path d="M1090 1909 c0 -11 5 -17 10 -14 6 3 10 13 10 21 0 8 -4 14 -10 14 -5
0 -10 -9 -10 -21z"/>
<path d="M1271 1914 c0 -11 3 -14 6 -6 3 7 2 16 -1 19 -3 4 -6 -2 -5 -13z"/>
<path d="M1301 1914 c0 -11 3 -14 6 -6 3 7 2 16 -1 19 -3 4 -6 -2 -5 -13z"/>
<path d="M1321 1914 c0 -11 3 -14 6 -6 3 7 2 16 -1 19 -3 4 -6 -2 -5 -13z"/>
<path d="M1371 1914 c0 -11 3 -14 6 -6 3 7 2 16 -1 19 -3 4 -6 -2 -5 -13z"/>
<path d="M1455 1917 c-4 -10 -5 -21 -1 -24 3 -4 6 -1 6 5 0 6 7 9 15 6 8 -4
15 -1 15 6 0 6 -4 9 -9 6 -5 -4 -11 0 -14 6 -3 9 -7 7 -12 -5z"/>
<path d="M1501 1914 c0 -11 3 -14 6 -6 3 7 2 16 -1 19 -3 4 -6 -2 -5 -13z"/>
<path d="M1721 1914 c0 -11 3 -14 6 -6 3 7 2 16 -1 19 -3 4 -6 -2 -5 -13z"/>
<path d="M1773 1915 c0 -18 19 -15 25 3 2 7 -3 12 -10 12 -8 0 -15 -7 -15 -15z"/>
<path d="M1820 1921 c0 -5 9 -7 20 -4 11 3 20 7 20 9 0 2 -9 4 -20 4 -11 0
-20 -4 -20 -9z"/>
<path d="M1871 1914 c0 -11 3 -14 6 -6 3 7 2 16 -1 19 -3 4 -6 -2 -5 -13z"/>
<path d="M1952 1910 c0 -14 2 -19 5 -12 2 6 2 18 0 25 -3 6 -5 1 -5 -13z"/>
<path d="M980 1916 c0 -2 7 -9 15 -16 13 -11 14 -10 9 4 -5 14 -24 23 -24 12z"/>
<path d="M5524 1515 c0 -170 2 -242 3 -158 2 83 2 223 0 310 -1 87 -3 19 -3
-152z"/>
<path d="M3887 1583 c-4 -3 -7 -17 -7 -30 0 -18 5 -23 25 -23 30 0 41 21 26
47 -9 15 -10 13 -5 -9 5 -24 3 -28 -16 -28 -18 0 -21 4 -18 25 6 27 5 29 -5
18z"/>
<path d="M4572 1560 c0 -19 2 -27 5 -17 2 9 2 25 0 35 -3 9 -5 1 -5 -18z"/>
<path d="M4592 1560 c0 -19 2 -27 5 -17 2 9 2 25 0 35 -3 9 -5 1 -5 -18z"/>
<path d="M4721 1563 c-1 -28 2 -33 22 -32 15 1 17 3 5 6 -9 2 -19 16 -21 31
-4 24 -4 24 -6 -5z"/>
<path d="M4332 1555 c0 -16 2 -22 5 -12 2 9 2 23 0 30 -3 6 -5 -1 -5 -18z"/>
<path d="M5022 1555 c0 -16 2 -22 5 -12 2 9 2 23 0 30 -3 6 -5 -1 -5 -18z"/>
<path d="M5090 1559 c0 -11 4 -18 10 -14 5 3 7 12 3 20 -7 21 -13 19 -13 -6z"/>
<path d="M5220 1570 c0 -5 5 -10 10 -10 6 0 10 5 10 10 0 6 -4 10 -10 10 -5 0
-10 -4 -10 -10z"/>
<path d="M5301 1564 c0 -11 3 -14 6 -6 3 7 2 16 -1 19 -3 4 -6 -2 -5 -13z"/>
<path d="M3952 1550 c0 -14 2 -19 5 -12 2 6 2 18 0 25 -3 6 -5 1 -5 -13z"/>
<path d="M4002 1540 c0 -19 2 -27 5 -17 2 9 2 25 0 35 -3 9 -5 1 -5 -18z"/>
<path d="M4150 1550 c0 -11 2 -20 4 -20 2 0 6 9 9 20 3 11 1 20 -4 20 -5 0 -9
-9 -9 -20z"/>
<path d="M4182 1550 c0 -14 2 -19 5 -12 2 6 2 18 0 25 -3 6 -5 1 -5 -13z"/>
<path d="M4212 1550 c0 -14 2 -19 5 -12 2 6 2 18 0 25 -3 6 -5 1 -5 -13z"/>
<path d="M4232 1550 c0 -14 2 -19 5 -12 2 6 2 18 0 25 -3 6 -5 1 -5 -13z"/>
<path d="M4255 1560 c3 -5 8 -10 11 -10 2 0 4 5 4 10 0 6 -5 10 -11 10 -5 0
-7 -4 -4 -10z"/>
<path d="M4282 1550 c0 -14 2 -19 5 -12 2 6 2 18 0 25 -3 6 -5 1 -5 -13z"/>
<path d="M4464 1559 c-3 -6 -2 -15 3 -20 5 -5 9 -1 10 11 2 22 -2 25 -13 9z"/>
<path d="M4510 1550 c0 -11 2 -20 4 -20 2 0 6 9 9 20 3 11 1 20 -4 20 -5 0 -9
-9 -9 -20z"/>
<path d="M4622 1550 c0 -14 2 -19 5 -12 2 6 2 18 0 25 -3 6 -5 1 -5 -13z"/>
<path d="M4640 1556 c0 -8 4 -18 10 -21 5 -3 7 0 4 9 -3 8 2 16 13 19 14 4 14
5 -4 6 -14 1 -23 -5 -23 -13z"/>
<path d="M4930 1560 c0 -3 4 -12 10 -20 7 -12 10 -11 16 5 7 18 8 18 15 -1 7
-18 8 -18 8 2 1 17 -4 22 -24 20 -14 0 -25 -3 -25 -6z"/>
<path d="M5190 1550 c0 -11 2 -20 4 -20 2 0 6 9 9 20 3 11 1 20 -4 20 -5 0 -9
-9 -9 -20z"/>
<path d="M5323 1556 c1 -11 9 -21 17 -23 10 -3 11 -2 4 4 -6 4 -14 15 -17 23
-5 11 -6 9 -4 -4z"/>
<path d="M4026 1543 c-6 -14 -5 -15 5 -6 7 7 10 15 7 18 -3 3 -9 -2 -12 -12z"/>
<path d="M4126 1545 c-3 -9 -6 -22 -5 -28 0 -7 5 -1 10 12 5 13 8 26 5 28 -2
2 -6 -3 -10 -12z"/>
<path d="M4311 1544 c0 -11 3 -14 6 -6 3 7 2 16 -1 19 -3 4 -6 -2 -5 -13z"/>
<path d="M4910 1546 c0 -9 5 -16 10 -16 6 0 10 4 10 9 0 6 -4 13 -10 16 -5 3
-10 -1 -10 -9z"/>
<path d="M5140 1551 c0 -6 4 -13 10 -16 6 -3 7 1 4 9 -7 18 -14 21 -14 7z"/>
<path d="M4078 1533 c7 -3 16 -2 19 1 4 3 -2 6 -13 5 -11 0 -14 -3 -6 -6z"/>
<path d="M4848 1533 c7 -3 16 -2 19 1 4 3 -2 6 -13 5 -11 0 -14 -3 -6 -6z"/>
<path d="M0 1485 c0 -19 5 -35 10 -35 6 0 10 16 10 35 0 19 -4 35 -10 35 -5 0
-10 -16 -10 -35z"/>
<path d="M6190 1485 c0 -28 4 -35 20 -35 16 0 20 7 20 35 0 28 -4 35 -20 35
-16 0 -20 -7 -20 -35z"/>
<path d="M6215 775 c0 -369 1 -518 2 -332 2 186 2 488 0 670 -1 183 -2 31 -2
-338z"/>
<path d="M88 1363 c7 -3 16 -2 19 1 4 3 -2 6 -13 5 -11 0 -14 -3 -6 -6z"/>
<path d="M262 1340 c0 -19 2 -27 5 -17 2 9 2 25 0 35 -3 9 -5 1 -5 -18z"/>
<path d="M367 1348 c-9 -31 -2 -33 11 -3 6 14 8 25 3 25 -5 0 -11 -10 -14 -22z"/>
<path d="M617 1363 c-10 -9 -9 -41 2 -47 4 -3 6 6 3 21 -4 23 -2 25 17 20 11
-3 19 -1 15 4 -6 11 -28 12 -37 2z"/>
<path d="M901 1338 c0 -28 2 -30 9 -13 12 28 12 45 0 45 -5 0 -10 -15 -9 -32z"/>
<path d="M946 1361 c-4 -5 -2 -20 3 -33 9 -21 10 -21 10 10 1 32 -3 39 -13 23z"/>
<path d="M1128 1363 c7 -3 16 -2 19 1 4 3 -2 6 -13 5 -11 0 -14 -3 -6 -6z"/>
<path d="M1340 1343 c0 -21 3 -24 9 -14 5 8 7 20 4 28 -8 21 -13 15 -13 -14z"/>
<path d="M160 1339 c0 -5 9 -9 20 -9 11 0 20 4 20 8 0 4 -9 8 -20 9 -11 1 -20
-2 -20 -8z"/>
<path d="M240 1340 c0 -5 -7 -10 -15 -10 -8 0 -15 -4 -15 -8 0 -4 9 -8 20 -8
13 0 20 7 20 18 0 10 -2 18 -5 18 -3 0 -5 -4 -5 -10z"/>
<path d="M280 1335 c0 -8 5 -17 12 -21 7 -4 8 -3 4 4 -4 7 -1 12 8 12 23 0 19
15 -4 17 -11 1 -20 -4 -20 -12z"/>
<path d="M387 1336 c-3 -8 0 -17 7 -19 10 -4 12 1 9 14 -6 23 -9 24 -16 5z"/>
<path d="M535 1342 c-12 -12 -4 -20 15 -15 11 3 20 9 20 12 0 9 -27 10 -35 3z"/>
<path d="M736 1334 c-8 -21 -4 -25 14 -14 11 7 12 12 4 20 -8 8 -13 7 -18 -6z"/>
<path d="M1002 1330 c0 -14 2 -19 5 -12 2 6 2 18 0 25 -3 6 -5 1 -5 -13z"/>
<path d="M1021 1334 c0 -11 3 -14 6 -6 3 7 2 16 -1 19 -3 4 -6 -2 -5 -13z"/>
<path d="M1041 1334 c0 -11 3 -14 6 -6 3 7 2 16 -1 19 -3 4 -6 -2 -5 -13z"/>
<path d="M1147 1329 c4 -13 8 -18 11 -10 2 7 -1 18 -6 23 -8 8 -9 4 -5 -13z"/>
<path d="M1171 1334 c0 -11 3 -14 6 -6 3 7 2 16 -1 19 -3 4 -6 -2 -5 -13z"/>
<path d="M1232 1330 c0 -14 2 -19 5 -12 2 6 2 18 0 25 -3 6 -5 1 -5 -13z"/>
<path d="M1252 1330 c0 -14 2 -19 5 -12 2 6 2 18 0 25 -3 6 -5 1 -5 -13z"/>
<path d="M1282 1330 c0 -14 2 -19 5 -12 2 6 2 18 0 25 -3 6 -5 1 -5 -13z"/>
<path d="M1302 1330 c0 -14 2 -19 5 -12 2 6 2 18 0 25 -3 6 -5 1 -5 -13z"/>
<path d="M1371 1334 c0 -11 3 -14 6 -6 3 7 2 16 -1 19 -3 4 -6 -2 -5 -13z"/>
<path d="M920 1331 c0 -5 5 -13 10 -16 6 -3 10 -2 10 4 0 5 -4 13 -10 16 -5 3
-10 2 -10 -4z"/>
<path d="M970 1319 c0 -5 5 -7 10 -4 6 3 10 8 10 11 0 2 -4 4 -10 4 -5 0 -10
-5 -10 -11z"/>
<path d="M1200 1319 c0 -5 5 -7 10 -4 6 3 10 8 10 11 0 2 -4 4 -10 4 -5 0 -10
-5 -10 -11z"/>
<path d="M4058 998 c-3 -20 -10 -23 -55 -26 -49 -3 -53 -5 -53 -28 0 -19 -5
-24 -25 -24 -21 0 -25 -5 -25 -27 l0 -28 135 0 c108 0 134 3 130 13 -3 8 -5
20 -5 27 0 8 -10 15 -22 17 -20 3 -23 10 -26 51 -3 42 -6 47 -27 47 -17 0 -25
-6 -27 -22z"/>
<path d="M4247 963 c-9 -15 -6 -93 4 -88 4 3 5 24 2 47 -7 45 10 47 27 3 7
-17 14 -22 29 -18 12 3 21 1 21 -6 0 -6 -13 -14 -30 -17 -16 -4 -32 -14 -35
-24 -5 -15 -24 -17 -201 -18 -165 0 -195 2 -190 14 3 8 -1 14 -9 14 -20 0 -19
-34 1 -77 17 -34 18 -34 65 -28 46 6 50 5 76 -25 24 -30 30 -32 70 -26 24 3
60 14 81 25 39 20 106 86 114 110 2 8 20 20 39 26 39 14 45 38 10 43 -13 2
-33 15 -46 29 -13 16 -24 22 -28 16z m-232 -171 c0 -18 -20 -15 -23 4 -3 10 1
15 10 12 7 -3 13 -10 13 -16z"/>
<path d="M2040 860 l0 -71 -30 16 c-27 14 -30 14 -30 0 0 -8 -5 -15 -10 -15
-6 0 -5 -6 2 -14 9 -9 19 -11 30 -5 32 17 37 9 40 -58 l3 -68 63 -3 c57 -3 64
-1 69 18 5 19 13 20 145 20 131 0 140 -1 145 -20 5 -17 14 -20 69 -20 l64 0 0
70 0 70 168 3 167 3 -167 2 -168 2 0 70 0 70 -64 0 c-55 0 -64 -3 -69 -20 -5
-19 -14 -20 -145 -20 -131 0 -140 1 -145 20 -4 17 -14 20 -71 20 l-66 0 0 -70z
m118 -72 l-3 -133 -47 -3 -48 -3 0 135 0 136 50 0 51 0 -3 -132z m420 0 l-3
-133 -47 -3 -48 -3 0 135 0 136 50 0 51 0 -3 -132z m-108 -3 l0 -95 -145 0
-145 0 0 95 0 95 145 0 145 0 0 -95z"/>
<path d="M2328 833 c12 -2 30 -2 40 0 9 3 -1 5 -23 4 -22 0 -30 -2 -17 -4z"/>
<path d="M5240 785 l0 -145 64 0 c55 0 64 3 69 20 5 19 14 20 147 20 133 0
142 -1 147 -20 5 -17 14 -20 64 -20 l59 0 0 145 0 145 -59 0 c-50 0 -59 -3
-64 -20 -5 -19 -14 -20 -147 -20 -133 0 -142 1 -147 20 -5 17 -14 20 -69 20
l-64 0 0 -145z m120 0 l0 -135 -50 0 -50 0 0 135 0 135 50 0 50 0 0 -135z
m420 0 l0 -135 -50 0 -50 0 0 135 0 135 50 0 50 0 0 -135z m-115 0 l0 -90
-147 -3 -148 -3 0 96 0 96 148 -3 147 -3 0 -90z"/>
<path d="M5528 833 c12 -2 30 -2 40 0 9 3 -1 5 -23 4 -22 0 -30 -2 -17 -4z"/>
<path d="M1427 833 c14 -41 23 -43 137 -41 l111 2 -112 5 c-97 5 -111 8 -103
21 15 24 12 30 -15 30 -19 0 -23 -4 -18 -17z"/>
<path d="M3818 833 c7 -3 16 -2 19 1 4 3 -2 6 -13 5 -11 0 -14 -3 -6 -6z"/>
<path d="M4308 833 c7 -3 16 -2 19 1 4 3 -2 6 -13 5 -11 0 -14 -3 -6 -6z"/>
<path d="M3710 810 c0 -6 -62 -11 -152 -13 l-153 -3 158 -2 c102 -1 156 -6
152 -12 -8 -13 1 -13 27 1 21 11 21 12 3 25 -22 16 -35 18 -35 4z"/>
<path d="M5180 800 c0 -6 -142 -11 -402 -12 l-403 -3 399 -2 c276 -2 402 -7
407 -14 5 -8 13 -8 30 1 22 12 22 13 4 26 -22 16 -35 18 -35 4z"/>
<path d="M3872 664 c-2 -16 -7 -20 -30 -16 -40 5 -69 -29 -54 -63 9 -18 19
-25 41 -25 40 0 53 20 48 77 -2 26 -4 39 -5 27z m-12 -39 c18 -22 3 -55 -25
-55 -29 0 -47 27 -34 52 12 22 42 23 59 3z"/>
<path d="M4122 620 c-1 -40 2 -60 7 -51 6 9 11 10 15 2 4 -6 12 -11 18 -11 6
0 4 8 -5 18 -21 23 -21 30 0 56 10 12 11 15 3 9 -21 -19 -28 -16 -33 15 -2 15
-5 -2 -5 -38z"/>
<path d="M3912 638 c-7 -7 -12 -21 -12 -33 0 -28 19 -45 50 -45 30 0 50 16 50
41 0 40 -60 65 -88 37z m67 -17 c13 -24 -8 -55 -34 -50 -28 6 -42 34 -26 53
18 22 48 20 60 -3z"/>
<path d="M4032 638 c-21 -21 -15 -68 11 -77 12 -5 29 -6 37 -2 10 3 5 7 -15
11 -24 4 -31 11 -33 32 -3 23 2 29 30 37 29 8 30 9 8 10 -15 1 -31 -4 -38 -11z"/>
<path d="M4202 638 c-7 -7 -12 -21 -12 -33 0 -29 19 -45 50 -44 18 1 20 3 7 6
-17 4 -16 8 9 34 24 25 26 31 14 39 -21 13 -54 12 -68 -2z m58 -10 c0 -7 -12
-21 -25 -31 -22 -16 -26 -16 -31 -2 -4 8 -1 22 6 30 15 18 50 20 50 3z"/>
<path d="M4316 628 c-18 -25 -21 -68 -6 -68 6 0 10 15 10 33 0 25 6 37 23 45
17 8 18 11 5 11 -9 1 -24 -9 -32 -21z"/>
<path d="M4822 415 c0 -16 2 -22 5 -12 2 9 2 23 0 30 -3 6 -5 -1 -5 -18z"/>
<path d="M5062 420 c0 -14 2 -19 5 -12 2 6 2 18 0 25 -3 6 -5 1 -5 -13z"/>
<path d="M5086 425 c-3 -8 -1 -15 4 -15 6 0 10 7 10 15 0 8 -2 15 -4 15 -2 0
-6 -7 -10 -15z"/>
<path d="M5232 410 c0 -19 2 -27 5 -17 2 9 2 25 0 35 -3 9 -5 1 -5 -18z"/>
<path d="M5471 411 c1 -19 3 -21 6 -8 4 14 12 18 29 14 13 -2 24 -1 24 3 0 4
-13 10 -30 12 -27 4 -30 2 -29 -21z"/>
<path d="M5571 413 c-1 -28 2 -33 22 -32 15 1 17 3 5 6 -9 2 -19 16 -21 31 -4
24 -4 24 -6 -5z"/>
<path d="M5672 415 c0 -16 2 -22 5 -12 2 9 2 23 0 30 -3 6 -5 -1 -5 -18z"/>
<path d="M5780 416 c0 -31 6 -34 13 -6 3 11 1 23 -4 26 -5 3 -9 -6 -9 -20z"/>
<path d="M5832 415 c0 -16 2 -22 5 -12 2 9 2 23 0 30 -3 6 -5 -1 -5 -18z"/>
<path d="M1953 395 c0 -22 2 -30 4 -17 2 12 2 30 0 40 -3 9 -5 -1 -4 -23z"/>
<path d="M2600 393 c0 -43 8 -40 14 5 2 18 -1 32 -5 32 -5 0 -9 -16 -9 -37z"/>
<path d="M2932 395 c0 -22 3 -30 5 -17 2 12 8 22 13 22 5 0 11 -10 13 -22 4
-20 4 -19 6 5 1 17 -4 27 -13 27 -8 0 -17 6 -19 13 -3 6 -5 -6 -5 -28z"/>
<path d="M4777 423 c-10 -10 -8 -23 4 -23 5 0 7 5 3 12 -5 8 -2 9 10 5 10 -4
15 -3 11 3 -7 12 -19 13 -28 3z"/>
<path d="M4844 415 c-7 -17 3 -35 19 -34 9 0 9 2 0 6 -7 2 -13 12 -13 20 0 10
6 13 16 9 8 -3 12 -2 9 4 -9 15 -25 12 -31 -5z"/>
<path d="M4904 422 c18 -8 18 -9 3 -15 -19 -7 -23 -27 -6 -27 5 0 7 5 4 10 -3
6 -2 10 4 10 5 0 12 -6 15 -12 3 -7 4 -2 3 12 -1 16 -9 26 -22 27 -19 3 -19 3
-1 -5z"/>
<path d="M4942 418 c2 -6 11 -13 19 -16 12 -3 12 -2 0 6 -11 8 -11 10 0 15 10
4 8 6 -4 6 -10 1 -17 -4 -15 -11z"/>
<path d="M4984 415 c-7 -17 3 -35 19 -34 9 0 9 2 0 6 -7 2 -13 12 -13 20 0 10
6 13 16 9 8 -3 12 -2 9 4 -9 15 -25 12 -31 -5z"/>
<path d="M5112 410 c0 -14 2 -19 5 -12 2 6 2 18 0 25 -3 6 -5 1 -5 -13z"/>
<path d="M5130 400 c0 -28 2 -30 21 -20 24 13 22 43 -4 48 -13 3 -17 -3 -17
-28z m30 5 c0 -8 -4 -15 -10 -15 -5 0 -10 7 -10 15 0 8 5 15 10 15 6 0 10 -7
10 -15z"/>
<path d="M5184 415 c-7 -17 3 -35 19 -34 9 0 9 2 0 6 -7 2 -13 12 -13 20 0 10
6 13 16 9 8 -3 12 -2 9 4 -9 15 -25 12 -31 -5z"/>
<path d="M5252 405 c0 -16 2 -22 5 -12 2 9 2 23 0 30 -3 6 -5 -1 -5 -18z"/>
<path d="M5271 403 c1 -23 2 -24 6 -5 5 26 19 29 27 5 4 -14 4 -14 3 2 -1 11
-10 21 -20 23 -13 3 -17 -3 -16 -25z"/>
<path d="M5320 411 c0 -11 4 -22 9 -25 5 -4 7 4 3 16 -4 17 -2 20 12 15 10 -4
15 -3 11 3 -11 17 -35 11 -35 -9z"/>
<path d="M5406 414 c-8 -21 -8 -21 8 -21 8 0 11 8 8 19 -5 22 -8 23 -16 2z"/>
<path d="M5452 410 c0 -14 2 -19 5 -12 2 6 2 18 0 25 -3 6 -5 1 -5 -13z"/>
<path d="M5633 424 c18 -6 18 -6 0 -19 -21 -15 -12 -31 12 -21 22 8 15 40 -10
43 -17 2 -17 1 -2 -3z"/>
<path d="M5695 419 c-11 -16 -1 -19 13 -3 7 8 8 14 3 14 -5 0 -13 -5 -16 -11z"/>
<path d="M5748 423 c7 -3 16 -2 19 1 4 3 -2 6 -13 5 -11 0 -14 -3 -6 -6z"/>
<path d="M5866 422 c7 -4 14 -16 17 -27 4 -18 5 -18 6 3 0 12 5 22 10 22 5 0
12 -10 14 -22 4 -20 4 -19 6 5 1 24 -2 27 -31 27 -18 0 -28 -4 -22 -8z"/>
<path d="M5944 422 c18 -8 18 -9 3 -15 -24 -9 -21 -27 4 -27 28 0 23 44 -6 47
-19 3 -19 3 -1 -5z"/>
<path d="M5980 420 c0 -5 7 -7 15 -4 10 4 15 0 15 -11 0 -11 -5 -15 -16 -11
-8 3 -12 2 -9 -4 12 -20 35 -10 35 15 0 18 -5 25 -20 25 -11 0 -20 -4 -20 -10z"/>
<path d="M6030 411 c0 -11 4 -22 9 -25 5 -4 7 4 3 16 -3 14 -2 19 6 14 7 -4
12 -2 12 3 0 6 -7 11 -15 11 -8 0 -15 -9 -15 -19z"/>
<path d="M1782 400 c0 -14 2 -19 5 -12 2 6 2 18 0 25 -3 6 -5 1 -5 -13z"/>
<path d="M1811 404 c0 -11 3 -14 6 -6 3 7 2 16 -1 19 -3 4 -6 -2 -5 -13z"/>
<path d="M1972 390 c0 -19 2 -27 5 -17 2 9 2 25 0 35 -3 9 -5 1 -5 -18z"/>
<path d="M2210 393 c0 -26 4 -33 19 -33 25 0 32 11 24 39 -4 17 -8 19 -14 9
-7 -11 -11 -10 -19 2 -7 11 -10 7 -10 -17z m40 -13 c0 -5 -7 -10 -15 -10 -8 0
-15 5 -15 10 0 6 7 10 15 10 8 0 15 -4 15 -10z"/>
<path d="M2535 406 c-21 -15 -14 -46 10 -46 10 0 15 10 15 30 0 34 0 34 -25
16z m15 -21 c0 -8 -4 -15 -10 -15 -5 0 -10 7 -10 15 0 8 5 15 10 15 6 0 10 -7
10 -15z"/>
<path d="M2636 403 c-6 -14 -5 -15 5 -6 7 7 10 15 7 18 -3 3 -9 -2 -12 -12z"/>
<path d="M2710 405 c0 -9 5 -13 11 -9 6 3 15 0 20 -7 6 -10 9 -10 9 -2 0 7 -9
17 -20 23 -16 9 -20 8 -20 -5z"/>
<path d="M2831 392 c1 -17 3 -21 6 -9 6 24 21 21 26 -5 4 -21 4 -20 6 3 1 19
-5 28 -19 32 -16 4 -20 0 -19 -21z"/>
<path d="M2912 390 c0 -19 2 -27 5 -17 2 9 2 25 0 35 -3 9 -5 1 -5 -18z"/>
<path d="M4740 411 c0 -6 4 -13 10 -16 6 -3 7 1 4 9 -7 18 -14 21 -14 7z"/>
<path d="M1832 390 c0 -14 2 -19 5 -12 2 6 2 18 0 25 -3 6 -5 1 -5 -13z"/>
<path d="M1850 380 c0 -28 2 -30 20 -20 11 6 20 20 20 30 0 13 -7 20 -20 20
-16 0 -20 -7 -20 -30z m30 5 c0 -8 -4 -15 -10 -15 -5 0 -10 7 -10 15 0 8 5 15
10 15 6 0 10 -7 10 -15z"/>
<path d="M1904 395 c-7 -17 3 -35 19 -34 9 0 9 2 0 6 -7 2 -13 12 -13 20 0 9
6 13 15 9 8 -3 15 -1 15 4 0 16 -30 12 -36 -5z"/>
<path d="M1991 383 c2 -24 2 -25 6 -5 2 12 8 22 13 22 5 0 11 -10 13 -22 4
-20 4 -19 6 5 1 21 -4 27 -19 27 -15 0 -20 -6 -19 -27z"/>
<path d="M2043 394 c-3 -8 0 -21 6 -27 9 -9 11 -8 5 7 -4 11 -2 21 7 27 10 6
11 9 1 9 -7 0 -15 -7 -19 -16z"/>
<path d="M2124 395 c6 -7 13 -9 16 -5 3 4 12 9 20 12 8 3 1 6 -16 5 -25 0 -29
-3 -20 -12z"/>
<path d="M2272 385 c0 -16 2 -22 5 -12 2 9 2 23 0 30 -3 6 -5 -1 -5 -18z"/>
<path d="M2302 390 c0 -14 2 -19 5 -12 2 6 2 18 0 25 -3 6 -5 1 -5 -13z"/>
<path d="M2322 390 c0 -14 2 -19 5 -12 2 6 2 18 0 25 -3 6 -5 1 -5 -13z"/>
<path d="M2368 403 c7 -3 16 -2 19 1 4 3 -2 6 -13 5 -11 0 -14 -3 -6 -6z"/>
<path d="M2439 401 c9 -6 10 -11 2 -15 -12 -8 -6 -26 10 -26 5 0 9 11 9 25 0
17 -5 25 -17 25 -14 0 -15 -2 -4 -9z"/>
<path d="M2471 388 c1 -17 2 -19 6 -5 2 9 8 17 13 17 5 0 11 -8 13 -17 4 -14
5 -12 6 5 1 16 -5 22 -19 22 -14 0 -20 -6 -19 -22z"/>
<path d="M2984 395 c-7 -17 3 -35 19 -34 9 0 9 2 0 6 -7 2 -13 12 -13 20 0 10
6 13 16 9 8 -3 12 -2 9 4 -9 15 -25 12 -31 -5z"/>
<path d="M3093 403 c9 -2 23 -2 30 0 6 3 -1 5 -18 5 -16 0 -22 -2 -12 -5z"/>
<path d="M3156 402 c6 -4 10 -15 8 -24 -1 -10 2 -18 7 -18 5 0 9 11 9 25 0 17
-5 25 -17 25 -11 0 -14 -3 -7 -8z"/>
<path d="M3197 403 c-13 -12 -7 -32 13 -43 18 -10 20 -8 20 20 0 28 -17 40
-33 23z m23 -18 c0 -8 -4 -15 -10 -15 -5 0 -10 7 -10 15 0 8 5 15 10 15 6 0
10 -7 10 -15z"/>
<path d="M3244 395 c-7 -17 3 -35 19 -34 9 0 9 2 0 6 -7 2 -13 12 -13 20 0 9
6 13 15 9 8 -3 15 -1 15 4 0 16 -30 12 -36 -5z"/>
<path d="M5753 395 c0 -8 4 -12 9 -9 4 3 8 9 8 15 0 5 -4 9 -8 9 -5 0 -9 -7
-9 -15z"/>
<path d="M2341 384 c0 -11 3 -14 6 -6 3 7 2 16 -1 19 -3 4 -6 -2 -5 -13z"/>
<path d="M1670 381 c0 -10 19 -25 25 -20 1 2 -3 10 -11 17 -8 7 -14 8 -14 3z"/>
<path d="M2661 374 c0 -11 3 -14 6 -6 3 7 2 16 -1 19 -3 4 -6 -2 -5 -13z"/>
<path d="M2710 370 c0 -5 5 -10 11 -10 5 0 7 5 4 10 -3 6 -8 10 -11 10 -2 0
-4 -4 -4 -10z"/>
<path d="M3501 343 c0 -23 2 -25 8 -9 7 19 8 19 23 -2 18 -26 28 -19 27 17
l-1 26 -7 -25 -7 -25 -12 23 c-17 30 -32 28 -31 -5z"/>
<path d="M3830 345 c0 -18 4 -23 15 -19 12 5 13 10 4 20 -9 11 -8 14 4 14 8 0
18 -6 20 -12 3 -8 6 -6 6 5 1 12 -7 17 -24 17 -20 0 -25 -5 -25 -25z"/>
<path d="M3942 340 c0 -19 2 -27 5 -17 2 9 2 25 0 35 -3 9 -5 1 -5 -18z"/>
<path d="M3992 345 c0 -16 2 -22 5 -12 2 9 2 23 0 30 -3 6 -5 -1 -5 -18z"/>
<path d="M3892 340 c0 -14 2 -19 5 -12 2 6 2 18 0 25 -3 6 -5 1 -5 -13z"/>
<path d="M3922 335 c0 -16 2 -22 5 -12 2 9 2 23 0 30 -3 6 -5 -1 -5 -18z"/>
<path d="M4222 340 c0 -14 2 -19 5 -12 2 6 2 18 0 25 -3 6 -5 1 -5 -13z"/>
<path d="M4272 335 c0 -16 2 -22 5 -12 2 9 2 23 0 30 -3 6 -5 -1 -5 -18z"/>
<path d="M3572 330 c0 -14 2 -19 5 -12 2 6 2 18 0 25 -3 6 -5 1 -5 -13z"/>
<path d="M3595 340 c3 -5 8 -10 11 -10 2 0 4 5 4 10 0 6 -5 10 -11 10 -5 0 -7
-4 -4 -10z"/>
<path d="M3622 330 c0 -14 2 -19 5 -12 2 6 2 18 0 25 -3 6 -5 1 -5 -13z"/>
<path d="M3645 340 c3 -5 8 -10 11 -10 2 0 4 5 4 10 0 6 -5 10 -11 10 -5 0 -7
-4 -4 -10z"/>
<path d="M3791 334 c0 -11 3 -14 6 -6 3 7 2 16 -1 19 -3 4 -6 -2 -5 -13z"/>
<path d="M4011 334 c0 -11 3 -14 6 -6 3 7 2 16 -1 19 -3 4 -6 -2 -5 -13z"/>
<path d="M4171 334 c0 -11 3 -14 6 -6 3 7 2 16 -1 19 -3 4 -6 -2 -5 -13z"/>
<path d="M4291 334 c0 -11 3 -14 6 -6 3 7 2 16 -1 19 -3 4 -6 -2 -5 -13z"/>
<path d="M4322 325 c0 -16 2 -22 5 -12 2 9 2 23 0 30 -3 6 -5 -1 -5 -18z"/>
<path d="M4340 333 c0 -11 3 -14 8 -7 4 6 14 14 22 17 10 4 8 6 -7 6 -16 1
-23 -5 -23 -16z"/>
<path d="M4441 334 c0 -11 3 -14 6 -6 3 7 2 16 -1 19 -3 4 -6 -2 -5 -13z"/>
<path d="M4461 334 c0 -11 3 -14 6 -6 3 7 2 16 -1 19 -3 4 -6 -2 -5 -13z"/>
<path d="M4491 334 c0 -11 3 -14 6 -6 3 7 2 16 -1 19 -3 4 -6 -2 -5 -13z"/>
<path d="M4992 310 c0 -19 2 -27 5 -17 2 9 2 25 0 35 -3 9 -5 1 -5 -18z"/>
<path d="M5180 306 c0 -31 6 -34 13 -6 3 11 1 23 -4 26 -5 3 -9 -6 -9 -20z"/>
<path d="M5282 305 c0 -16 2 -22 5 -12 2 9 2 23 0 30 -3 6 -5 -1 -5 -18z"/>
<path d="M5492 305 c0 -16 2 -24 5 -17 4 9 8 10 18 2 11 -9 12 -7 8 9 -3 12
-9 19 -13 16 -5 -3 -11 1 -13 7 -3 7 -5 0 -5 -17z"/>
<path d="M5012 300 c0 -14 2 -19 5 -12 2 6 2 18 0 25 -3 6 -5 1 -5 -13z"/>
<path d="M5085 309 c-4 -6 -5 -12 -2 -15 2 -3 7 2 10 11 7 17 1 20 -8 4z"/>
<path d="M5112 300 c0 -14 2 -19 5 -12 2 6 2 18 0 25 -3 6 -5 1 -5 -13z"/>
<path d="M5212 300 c0 -14 2 -19 5 -12 2 6 2 18 0 25 -3 6 -5 1 -5 -13z"/>
<path d="M5230 300 c0 -11 4 -20 9 -20 5 0 7 9 4 20 -3 11 -7 20 -9 20 -2 0
-4 -9 -4 -20z"/>
<path d="M5262 300 c0 -14 2 -19 5 -12 2 6 2 18 0 25 -3 6 -5 1 -5 -13z"/>
<path d="M5307 301 c-4 -17 -3 -21 5 -13 5 5 8 16 6 23 -3 8 -7 3 -11 -10z"/>
<path d="M5542 300 c0 -14 2 -19 5 -12 2 6 2 18 0 25 -3 6 -5 1 -5 -13z"/>
<path d="M5592 300 c0 -14 2 -19 5 -12 2 6 2 18 0 25 -3 6 -5 1 -5 -13z"/>
<path d="M5682 300 c0 -14 2 -19 5 -12 2 6 2 18 0 25 -3 6 -5 1 -5 -13z"/>
<path d="M5725 309 c-4 -6 -5 -12 -2 -15 2 -3 7 2 10 11 7 17 1 20 -8 4z"/>
<path d="M5750 300 c0 -11 2 -20 4 -20 2 0 6 9 9 20 3 11 1 20 -4 20 -5 0 -9
-9 -9 -20z"/>
<path d="M5420 293 c-13 -15 -12 -16 4 -10 10 4 20 7 22 7 2 0 4 5 4 10 0 15
-13 12 -30 -7z"/>
<path d="M5368 283 c7 -3 16 -2 19 1 4 3 -2 6 -13 5 -11 0 -14 -3 -6 -6z"/>
<path d="M3702 235 c0 -16 2 -22 5 -12 2 9 2 23 0 30 -3 6 -5 -1 -5 -18z"/>
<path d="M3790 237 c0 -15 4 -27 8 -27 10 0 9 36 -1 46 -4 4 -7 -5 -7 -19z"/>
<path d="M3898 235 c-3 -14 -1 -25 3 -25 5 0 9 11 9 25 0 14 -2 25 -4 25 -2 0
-6 -11 -8 -25z"/>
<path d="M4010 237 c0 -20 4 -25 15 -21 13 5 13 9 3 23 -7 9 -14 18 -15 20 -2
2 -3 -8 -3 -22z"/>
<path d="M4060 240 c0 -6 7 -10 15 -10 8 0 15 2 15 4 0 2 -7 6 -15 10 -8 3
-15 1 -15 -4z"/>
<path d="M4240 230 c0 -11 2 -20 4 -20 2 0 6 9 9 20 3 11 1 20 -4 20 -5 0 -9
-9 -9 -20z"/>
<path d="M4272 230 c0 -14 2 -19 5 -12 2 6 2 18 0 25 -3 6 -5 1 -5 -13z"/>
<path d="M3731 224 c0 -11 3 -14 6 -6 3 7 2 16 -1 19 -3 4 -6 -2 -5 -13z"/>
<path d="M3951 224 c0 -11 3 -14 6 -6 3 7 2 16 -1 19 -3 4 -6 -2 -5 -13z"/>
<path d="M4191 224 c0 -11 3 -14 6 -6 3 7 2 16 -1 19 -3 4 -6 -2 -5 -13z"/>
<path d="M4301 224 c0 -11 3 -14 6 -6 3 7 2 16 -1 19 -3 4 -6 -2 -5 -13z"/>
<path d="M0 65 c0 -19 5 -35 10 -35 6 0 10 16 10 35 0 19 -4 35 -10 35 -5 0
-10 -16 -10 -35z"/>
<path d="M3070 65 c0 -33 2 -35 35 -35 33 0 35 2 35 35 0 33 -2 35 -35 35 -33
0 -35 -2 -35 -35z"/>
<path d="M6190 65 c0 -28 4 -35 20 -35 16 0 20 7 20 35 0 28 -4 35 -20 35 -16
0 -20 -7 -20 -35z"/>
<path d="M788 63 c420 -2 1104 -2 1520 0 416 1 73 2 -763 2 -836 0 -1177 -1
-757 -2z"/>
<path d="M3908 63 c420 -2 1104 -2 1520 0 416 1 73 2 -763 2 -836 0 -1177 -1
-757 -2z"/>
</g>
</svg>